<svg xmlns="http://www.w3.org/2000/svg" width="47.385" height="47.385" viewBox="0 0 47.385 47.385">
  <g id="analysis" transform="translate(-1.928 -1.928)">
    <path id="Path_2" data-name="Path 2" d="M39.847,34l-.789.789-1.447-1.447a19.749,19.749,0,1,0-4.271,4.271l1.447,1.447L34,39.847,42.253,48.1A4.135,4.135,0,0,0,48.1,42.253ZM3.562,21.7A18.143,18.143,0,1,1,21.7,39.847,18.143,18.143,0,0,1,3.562,21.7ZM34.581,36.621a19.763,19.763,0,0,0,2.04-2.04L37.943,35.9l-2.04,2.04Zm10.6,11.114a2.541,2.541,0,0,1-1.809-.749L36.23,39.847l3.617-3.617,7.139,7.139a2.558,2.558,0,0,1-1.809,4.367Z" transform="translate(0)" fill="#ff4e4e"/>
    <path id="Path_3" data-name="Path 3" d="M22.565,6A16.565,16.565,0,1,0,39.13,22.565,16.565,16.565,0,0,0,22.565,6Zm0,31.552A14.987,14.987,0,1,1,37.552,22.565,14.987,14.987,0,0,1,22.565,37.552Z" transform="translate(-0.86 -0.86)" fill="#ff4e4e"/>
    <path id="Path_4" data-name="Path 4" d="M34.087,27.621V17.366A2.366,2.366,0,0,0,31.72,15H15.944a2.366,2.366,0,0,0-2.366,2.366V27.621H12v2.366a2.366,2.366,0,0,0,2.366,2.366H33.3a2.366,2.366,0,0,0,2.366-2.366V27.621ZM15.155,17.366a.789.789,0,0,1,.789-.789H31.72a.789.789,0,0,1,.789.789V27.621H15.155ZM34.087,29.987a.789.789,0,0,1-.789.789H14.366a.789.789,0,0,1-.789-.789V29.2H34.087Z" transform="translate(-2.127 -2.761)" fill="#ff4e4e"/>
    <path id="Path_5" data-name="Path 5" d="M27.528,20.578h2.04L25.95,24.2,22.795,21.04l-4.5,4.5,1.115,1.115,3.386-3.386,3.155,3.155,4.733-4.733v2.04H32.26V19H27.528Z" transform="translate(-3.456 -3.606)" fill="#ff4e4e"/>
  </g>
</svg>
