<svg xmlns="http://www.w3.org/2000/svg" width="47.38" height="47.38" viewBox="0 0 47.38 47.38">
  <g id="architecture" transform="translate(-2 -1)">
    <path id="Path_6" data-name="Path 6" d="M29.638,10.137V5.66H28.059V1H23.321V5.66H21.742v4.477l-.488.96H2V42.166H21.392L19.023,48.38H32.357l-2.369-6.214H49.38V11.1H30.126Zm-6.091,4.214-10,19.681a2.669,2.669,0,0,1-.572-3.169L22.156,12.8A3.919,3.919,0,0,0,23.548,14.351Zm1.479.564a3.361,3.361,0,0,0,1.326,0l2.8,5.5H22.23Zm2.8-.564A3.916,3.916,0,0,0,29.224,12.8l9.184,18.067a2.669,2.669,0,0,1-.572,3.169ZM24.9,2.553H26.48V5.66H24.9Zm-1.579,4.66h4.738V11.1a2.369,2.369,0,0,1-4.738,0Zm6.757,39.613H21.3l1.777-4.66H28.3ZM47.8,40.613H3.579V39.059H47.8Zm0-27.962V37.506H3.579V12.651H20.464L11.559,30.168a4.22,4.22,0,0,0,1.933,5.707l.706.347L21.44,21.971h8.5l7.242,14.247.706-.347a4.22,4.22,0,0,0,1.937-5.7L30.916,12.651Z" fill="#ff4e4e"/>
    <path id="Path_7" data-name="Path 7" d="M32,14a.99.99,0,1,0-.71-.29A1.052,1.052,0,0,0,32,14Z" transform="translate(-6.308 -2.543)" fill="#ff4e4e"/>
  </g>
</svg>
