<svg id="dribbble" xmlns="http://www.w3.org/2000/svg" width="64.923" height="64.923" viewBox="0 0 64.923 64.923">
  <ellipse id="Ellipse_8" data-name="Ellipse 8" cx="32.461" cy="32.461" rx="32.461" ry="32.461" transform="translate(0 0)" fill="#262837"/>
  <g id="Group_20" data-name="Group 20" transform="translate(11.82 11.846)">
    <path id="Path_18" data-name="Path 18" d="M41.067,20.472A20.616,20.616,0,1,0,61.71,41.088,20.652,20.652,0,0,0,41.067,20.472ZM54.65,30.2A17.31,17.31,0,0,1,58.5,40.822a43.076,43.076,0,0,0-8.066-.779,32.6,32.6,0,0,0-3.976.231c-.114-.277-.228-.553-.348-.832-.35-.823-.727-1.64-1.118-2.445A23.752,23.752,0,0,0,54.65,30.2ZM41.067,23.7a17.378,17.378,0,0,1,11.49,4.325c-.486.663-3.122,3.959-9.007,6.182a94.263,94.263,0,0,0-6.414-10.059,17.408,17.408,0,0,1,3.931-.448Zm-7.491,1.69a112.634,112.634,0,0,1,6.381,9.934,66.005,66.005,0,0,1-15.763,2.1h-.171a17.486,17.486,0,0,1,9.552-12.033ZM23.628,41.115q0-.215.007-.43h.458A65.281,65.281,0,0,0,41.511,38.21c.47.919.917,1.852,1.333,2.784-.2.056-.388.112-.58.175C33.548,43.984,28.757,51.436,28.02,52.655a17.329,17.329,0,0,1-4.391-11.54ZM41.067,58.53A17.367,17.367,0,0,1,30.431,54.9c.5-.977,4.114-7.487,13.666-10.812l.019-.006A72.577,72.577,0,0,1,47.8,57.177a17.342,17.342,0,0,1-6.737,1.353Zm9.878-3.07A76.187,76.187,0,0,0,47.6,43.231a22.867,22.867,0,0,1,3.51-.264,25.914,25.914,0,0,1,7.159,1A17.448,17.448,0,0,1,50.945,55.46Z" transform="translate(-20.426 -20.472)" fill="#fff"/>
  </g>
</svg>
