<svg xmlns="http://www.w3.org/2000/svg" width="60" height="47.38" viewBox="0 0 60 47.38">
  <g id="programming" transform="translate(-2 -8)">
    <path id="Path_8" data-name="Path 8" d="M60,12.935A4.974,4.974,0,0,0,55,8H9a4.974,4.974,0,0,0-5,4.935V49.457H2v.987A4.974,4.974,0,0,0,7,55.38H57a4.974,4.974,0,0,0,5-4.935v-.987H60Zm-54,0A2.981,2.981,0,0,1,9,9.974H55a2.981,2.981,0,0,1,3,2.961V49.457H6Zm51,40.47H7a3,3,0,0,1-2.829-1.974H59.829A3,3,0,0,1,57,53.406Z" fill="#ff4e4e"/>
    <path id="Path_9" data-name="Path 9" d="M8,48H56V14H8Zm2-32H54V46H10Z" fill="#ff4e4e"/>
    <path id="Path_10" data-name="Path 10" d="M32,13a.99.99,0,0,0,1-1,1,1,0,0,0-.08-.38,1.032,1.032,0,0,0-.21-.33,1.047,1.047,0,0,0-1.42,0,1.032,1.032,0,0,0-.21.33A1,1,0,0,0,31,12a1.047,1.047,0,0,0,.29.71A1.029,1.029,0,0,0,32,13Z" fill="#ff4e4e"/>
    <path id="Path_11" data-name="Path 11" d="M16.293,18.293,12.586,22l3.707,3.707,1.414-1.414L15.414,22l2.293-2.293Z" transform="translate(0 -0.157)" fill="#ff4e4e"/>
    <path id="Path_12" data-name="Path 12" d="M25.707,25.707,29.414,22l-3.707-3.707-1.414,1.414L26.586,22l-2.293,2.293Z" transform="translate(0 -0.157)" fill="#ff4e4e"/>
    <path id="Path_13" data-name="Path 13" d="M16.293,36.293,12.586,40l3.707,3.707,1.414-1.414L15.414,40l2.293-2.293Z" transform="translate(0 -0.432)" fill="#ff4e4e"/>
    <path id="Path_14" data-name="Path 14" d="M24.293,37.707,26.586,40l-2.293,2.293,1.414,1.414L29.414,40l-3.707-3.707Z" transform="translate(0 -0.432)" fill="#ff4e4e"/>
    <rect id="Rectangle_27" data-name="Rectangle 27" width="4" height="2" transform="translate(19 20.825)" fill="#ff4e4e"/>
    <rect id="Rectangle_28" data-name="Rectangle 28" width="6.325" height="1.999" transform="translate(19.051 42.253) rotate(-71.547)" fill="#ff4e4e"/>
    <rect id="Rectangle_29" data-name="Rectangle 29" width="4" height="2" transform="translate(21 27.73)" fill="#ff4e4e"/>
    <rect id="Rectangle_30" data-name="Rectangle 30" width="23" height="2" transform="translate(27 27.73)" fill="#ff4e4e"/>
    <rect id="Rectangle_31" data-name="Rectangle 31" width="4" height="2" transform="translate(21 31.677)" fill="#ff4e4e"/>
    <rect id="Rectangle_32" data-name="Rectangle 32" width="23" height="2" transform="translate(27 31.677)" fill="#ff4e4e"/>
  </g>
</svg>
